<svg xmlns="http://www.w3.org/2000/svg" width="256" height="256"><path fill-opacity=".016" d="M0 128.004v128.004l128.25-.254 128.25-.254.254-127.75L257.008 0H0v128.004m.485.496c0 70.4.119 99.053.265 63.672.146-35.38.146-92.98 0-128C.604 29.153.485 58.1.485 128.5" fill="#1976D2" fill-rule="evenodd"/><path fill-opacity=".215" d="M20.994 79.934c-7.17 2.181-14.65 8.565-18.242 15.566-2.777 5.414-3.481 15.912-1.464 21.833 2.188 6.419 9.122 16.227 13.941 19.718 7.117 5.155 11.845 5.951 35.203 5.927 23.223-.024 26.186-.64 31.754-6.602 6.504-6.962 6.49-18.276-.031-25.702-.882-1.005-4.358-3.367-7.725-5.25L68.308 102H47.654c-19.321 0-20.783.129-22.654 2-2.548 2.548-2.558 6.185-.024 8.479 1.087.983 1.773 2.118 1.524 2.521-.249.403.483 1.58 1.626 2.616 1.858 1.684 4.14 1.917 21.476 2.193 19.68.314 21.48.709 18.198 3.991-1.637 1.637-40.649 1.682-44.227.051-5.568-2.537-7.122-14.463-2.694-20.681C24.963 97.434 27.313 97 54.252 97c25.358 0 29.924-.591 31.812-4.119 1.57-2.934.073-8.878-2.48-9.849-1.191-.453-2.765-1.546-3.498-2.428-1.166-1.405-4.755-1.593-28.958-1.518-15.196.047-28.756.429-30.134.848M89 81c-2.548 2.548-2.558 6.185-.024 8.479 1.087.983 1.74 2.171 1.451 2.639-.289.468.959 1.756 2.774 2.863 3.141 1.915 4.994 2.012 38.599 2.015 41.471.005 41.2.057 41.2-7.899 0-4.346-1.765-7.998-3.181-6.582-.274.273-1.315-.405-2.313-1.509-1.756-1.94-3.048-2.006-39.161-2.006-36.012 0-37.416.071-39.345 2m87 0c-1.894 1.894-2 3.333-2 27.07v25.07l3.042 4.421c1.673 2.432 4.054 4.676 5.289 4.986 3.335.837 7.571-1.16 8.687-4.094.54-1.421.982-9.277.982-17.459 0-9.571.385-15.114 1.08-15.543.594-.367 13.666 7.722 29.049 17.976 15.384 10.253 29.298 18.908 30.92 19.233l2.951.59v-30.47c0-28.249-.133-30.591-1.829-32.125-2.364-2.14-5.409-2.104-8.058.095-1.985 1.648-2.123 2.819-2.36 20.038l-.253 18.288-28.667-18.959c-15.767-10.427-29.575-19.444-30.684-20.037-3.045-1.63-5.924-1.305-8.149.92m-87.127 23.127c-1.804 1.804-2.044 2.923-1.585 7.372.864 8.376 7.974 20.505 15.006 25.599 7.32 5.302 11.417 5.902 40.332 5.902 25.971 0 26.292-.026 28.939-2.303 2.362-2.031 2.596-2.768 1.984-6.25-.566-3.224-1.483-4.451-5.001-6.697l-4.307-2.75h-25.574c-25.855 0-31.127-.637-29.981-3.624.431-1.124 5.871-1.379 29.671-1.391 34.285-.017 33.994.049 34.446-7.77.248-4.304-.019-5.355-1.5-5.896-.992-.363-2.876-1.483-4.188-2.489-2.211-1.697-5.063-1.83-39.25-1.83-36.264 0-36.9.035-38.992 2.127m58.548 45.735c-2.243 1.038-4.974 3.025-6.069 4.417-1.954 2.484-2.013 2.494-3.24.528-.688-1.101-1.524-1.729-1.857-1.395-.334.333-1.674-.397-2.98-1.623-1.866-1.753-3.857-2.313-9.324-2.622l-6.951-.393v5.113c0 2.812-.273 5.113-.606 5.113-.333 0-1.494-1.129-2.58-2.51-1.086-1.38-2.388-2.253-2.894-1.941-.506.313-.92.175-.92-.306 0-1.946-7.872-5.243-12.518-5.243-12.649 0-18.548 11.989-11.388 23.146l3.094 4.822 12.84-.037c8.96-.025 13.011-.398 13.406-1.233.432-.915.704-.902 1.149.052.321.688 2.345 1.25 4.5 1.25 3.486 0 3.917-.268 3.917-2.441 0-3.697 1.602-3.926 3.992-.571 1.667 2.341 2.904 3.012 5.555 3.012 3.241 0 3.356-.12 2.312-2.41-.851-1.867-.772-2.876.35-4.478 1.44-2.056 1.459-2.052 3.437.66 1.094 1.501 2.282 3.515 2.64 4.478.544 1.462 1.938 1.75 8.46 1.75 7.246 0 8.04-.212 11.031-2.944 5.528-5.048 3.895-6.809-2.372-2.556-3.67 2.491-8.715 3.224-11.226 1.632-.74-.469-1.399-2.916-1.5-5.566-.158-4.187.196-5.065 3.087-7.648 3.927-3.509 8.185-3.801 12.335-.846 3.444 2.452 6.399 2.189 6.399-.569 0-2.527-9.706-9.199-14.5-9.967-2.33-.373-4.864.071-7.579 1.326m53.586-.303c-1.921.852-4.451 2.449-5.622 3.549-1.825 1.714-2.214 1.781-2.719.463-.951-2.478-3.217-.812-6.101 4.487-4.045 7.432-4.092 5.938-.065-2.058 2.686-5.335 3.167-7 2.021-7-.827 0-2.944 2.552-4.704 5.67-2.78 4.925-3.339 5.437-4.258 3.892-2.144-3.601-4.802-6.652-5.333-6.121-.301.3-1.175-.351-1.943-1.447-1.346-1.922-4.301-2.783-4.266-1.244.009.412 2.034 4.508 4.5 9.101 3.585 6.677 4.483 9.343 4.483 13.307v4.957l4.238-.308c3.977-.288 4.277-.522 4.864-3.807.345-1.925 1.539-5.465 2.654-7.867l2.029-4.368.69 4.088c.38 2.249 1.477 5.114 2.438 6.368.96 1.253 2.034 3.066 2.385 4.029.534 1.463 1.921 1.75 8.448 1.75 7.246 0 8.04-.212 11.031-2.944 1.773-1.619 3.223-3.405 3.223-3.968 0-1.213-2.849-.34-5.066 1.552-4.024 3.435-12.29 2.884-12.838-.855-.881-6.001-.325-8.191 2.786-10.971 3.766-3.365 8.454-3.68 12.118-.814 3.557 2.782 6 2.583 6-.49 0-1.899-1.245-3.307-5.25-5.936-6.422-4.216-11.039-5.1-15.743-3.015M0 163v14h4c3.822 0 4.005-.145 4.118-3.25.066-1.787.082-3.925.038-4.75-.045-.825.914.628 2.131 3.23l2.213 4.73 5.221.02c5.038.019 5.255-.094 6.16-3.23l.939-3.25.09 3.25c.088 3.172.198 3.25 4.59 3.25 4.214 0 4.508-.175 4.618-2.75.066-1.512.04-3.164-.056-3.669-.33-1.736 3.146 1.837 4.017 4.128.806 2.118 1.461 2.291 8.668 2.291 7.201 0 8.101-.237 11.775-3.105l3.978-3.104-3.266 3.104L55.968 177h4.491c3.96 0 4.669-.348 6.015-2.95 2.076-4.014 1.922-10.888-.325-14.573-1.014-1.663-4.36-4.756-7.436-6.875-5.281-3.637-5.93-3.827-11.664-3.412-5.204.376-6.556.909-9.461 3.725-3.247 3.147-3.418 3.197-4.056 1.185-.374-1.179-1.514-2.1-2.599-2.1-1.088 0-1.933-.685-1.933-1.566 0-1.108-.777-1.474-2.65-1.25-2.305.275-3.17 1.527-6.645 9.623l-3.994 9.307-1.697-4.807C11.436 156.001 9.111 152 7.443 152c-.828 0-1.765-.675-2.081-1.5-.317-.825-1.653-1.5-2.969-1.5H0v14m65-12.5c0 1.002 1.079 1.539 3.25 1.616 1.793.064 2.441.326 1.445.584-1.914.496-1.738 2.976.18 2.55.78-.173 1.125 3.12 1.125 10.75v11h7.801l.35-8.905c.324-8.259.553-9.093 3.155-11.504 2.802-2.595 2.86-4.591.135-4.591-.793 0-1.441-.675-1.441-1.5 0-1.208-1.556-1.5-8-1.5s-8 .292-8 1.5M223 163v14h7.5c5.853 0 7.5-.315 7.5-1.437 0-.867-1.212-1.56-3.062-1.75l-3.061-.313-.189-9.788c-.142-7.392-.549-10.01-1.662-10.697-.946-.584-1.727-.5-2.181.236-.427.691-.976.076-1.385-1.553-.372-1.484-1.303-2.698-2.068-2.698-1.123 0-1.392 2.707-1.392 14m18-1.582c0 6.83-.273 13.13-.607 14-.523 1.362.518 1.582 7.5 1.582 6.54 0 8.107-.29 8.107-1.5 0-1.053-1.064-1.5-3.573-1.5-2.863 0-3.508-.348-3.242-1.75.218-1.153 1.438-1.857 3.573-2.063 3.122-.302 3.242-.478 3.242-4.75V161h-4.155c-4.092 0-4.127-.03-2.345-2 .995-1.1 2.865-2 4.155-2 2.069 0 2.345-.47 2.345-4v-4h-15v12.418M40.4 155.4c-1.87 1.87-3.4 3.962-3.4 4.648 0 .686 1.028-.281 2.285-2.15 1.305-1.942 3.77-3.91 5.75-4.592 2.799-.964 3.013-1.204 1.115-1.25-1.392-.033-3.736 1.33-5.75 3.344m49.706-.499c-1.708 1.596-3.106 3.43-3.106 4.077 0 .646 1.162-.206 2.583-1.894 1.421-1.688 4.008-3.482 5.75-3.987 3.031-.877 3.053-.921.523-1.007-1.628-.055-3.838 1.025-5.75 2.811m29.909-1.151c.01 1.111.284 1.336.75.616.404-.624 1.635-1.359 2.735-1.634 1.533-.383 1.358-.527-.75-.616-2.002-.084-2.746.36-2.735 1.634m30.798-1.067c.721.289 1.584.253 1.916-.079.332-.332-.258-.568-1.312-.525-1.165.048-1.402.285-.604.604m53 0c.721.289 1.584.253 1.916-.079.332-.332-.258-.568-1.312-.525-1.165.048-1.402.285-.604.604m-58.809 2.813c-3.243 3.452-2.154 3.67 1.372.274 1.581-1.524 2.447-2.77 1.924-2.77-.523 0-2.007 1.123-3.296 2.496m53.17-.182c-1.196 1.273-2.16 2.961-2.144 3.75.02.925.422.725 1.131-.564.605-1.1 2.053-2.777 3.219-3.728 1.166-.95 1.636-1.738 1.044-1.75-.591-.012-2.054 1.02-3.25 2.292m-175.012 4.229c-1.675 3.677-1.355 4.462.456 1.119.846-1.562 1.351-3.026 1.123-3.255-.229-.228-.939.733-1.579 2.136m23.726-1.043c-3.082 1.675-5.349 6.528-4.545 9.731.313 1.248.551 2.669.528 3.157-.13 2.763 6.642 3.432 11.149 1.102 3.716-1.922 4.98-4.32 4.98-9.449 0-3.471-.389-4.238-2.565-5.066-3.492-1.327-6.437-1.165-9.547.525m48.16 1.298c-3.234 3.234-3.883 6.877-2.073 11.637.799 2.101 1.63 2.565 4.596 2.565 6.681 0 11.449-4.511 11.414-10.797-.024-4.144-1.333-5.375-6.314-5.937-4.104-.462-4.889-.202-7.623 2.532m30.619-2.131c-.367.366-.667 1.989-.667 3.607 0 2.27.36 2.802 1.582 2.333.87-.334 2.204-.607 2.965-.607 2.16 0 3.986-4.047 2.306-5.112-1.618-1.025-5.253-1.155-6.186-.221m-105.043 7.872c-.965 2.514-.681 3.163.498 1.136.584-1.004.851-2.036.593-2.293-.257-.258-.749.263-1.091 1.157m87.813 7.586c-2.056 2.188-2.307 2.743-.835 1.852 1.816-1.1 5.005-4.977 4.094-4.977-.177 0-1.644 1.406-3.259 3.125m54.62 1.953l-2.444 2.056 4.444-.317c3.142-.224 4.443-.756 4.443-1.817 0-2.279-3.696-2.234-6.443.078m53.082-.045L213.778 177h4.111c3.444 0 4.111-.324 4.111-2 0-2.577-2.746-2.561-5.861.033" fill="#1976D2" fill-rule="evenodd"/><path fill-opacity=".259" d="M21.5 80.399C12.613 83.209 7.136 87.799 2.881 96c-1.835 3.536-2.34 6.121-2.358 12.071-.031 10.063 3.512 17.363 11.48 23.652a996.74 996.74 0 016.839 5.434c3.65 2.975 10.763 3.843 31.501 3.843 19.303 0 21.38-.172 25.355-2.096 6.229-3.015 9.692-9.193 9.107-16.246-.354-4.26-1.238-6.318-4.674-10.868-6.553-8.679-8.305-9.232-30.496-9.619-10.376-.182-19.933-.062-21.238.265-3.05.766-5.754 4.863-4.928 7.467.349 1.1 2.5 3.372 4.78 5.049L32.394 118h18.244c11.596 0 18.479.38 18.889 1.044.355.574-.079 2.149-.964 3.5L66.954 125l-21.227-.004c-19.451-.003-21.501-.17-24.502-2-1.801-1.098-3.714-3.151-4.25-4.562-2.662-7.001.568-16.743 6.846-20.646 3.539-2.201 4.716-2.307 31.011-2.788 25.586-.468 27.423-.624 28.75-2.441 2.185-2.991 1.728-4.945-2.202-9.429L77.759 79l-26.129.067c-18.124.046-27.356.454-30.13 1.332m67.573 1.236c-3.262 4.146-2.915 5.081 4.027 10.865 2.287 1.906 4.068 2.012 37.9 2.255 39.075.28 40.264.126 40.789-5.278.223-2.295-.548-3.836-3.364-6.727L164.772 79H91.145l-2.072 2.635m88.15-1.078c-2.2 1.54-2.223 1.824-2.208 27.25.009 14.131.374 26.258.812 26.947 1.125 1.772 7.34 6.246 8.676 6.246.613 0 1.988-.638 3.056-1.417 1.76-1.285 1.988-3.078 2.441-19.238.422-15.036.742-17.868 2.049-18.118 1.302-.249 9.535 4.553 17.451 10.179 10.803 7.677 26.734 17.567 27.517 17.083.541-.334.983-.13.983.452 0 .582.675 1.059 1.5 1.059s1.5.723 1.5 1.607c0 1.012.551 1.396 1.488 1.036.86-.33 1.388-.059 1.25.643-.131.668.549 1.152 1.512 1.075.963-.076 1.75.389 1.75 1.035 0 1.402 5.148 4.604 7.404 4.604 1.424 0 1.596-3.062 1.596-28.364V84.273l-2.612-2.612c-1.962-1.962-3.039-2.383-4.332-1.691-4.205 2.251-4.54 3.756-5.056 22.725l-.5 18.394-10-7.18C217.801 102.638 182.03 79 180.672 79c-.675 0-2.227.701-3.449 1.557m-87.815 23.944c-2.243 2.243-2.486 3.109-1.901 6.785 1.699 10.666 8.359 19.598 19.353 25.953l5.64 3.261 27.335.309c23.598.267 27.665.093 29.75-1.273 3.238-2.121 3.041-4.957-.669-9.642L165.832 126h-24.673c-24.562 0-29.196-.484-33.849-3.532-1.966-1.289-2.211-1.882-1.254-3.035.984-1.186 6.385-1.433 31.344-1.433 25.674 0 30.485-.231 32.377-1.557 3.164-2.216 2.755-5.625-1.211-10.083l-3.435-3.86-36.575-.286-36.576-.285-2.572 2.572m159.342 32.161c.688.278 1.813.278 2.5 0 .688-.277.125-.504-1.25-.504s-1.937.227-1.25.504M0 163c0 11.778.238 14 1.5 14 1.243 0 1.515-2.01 1.586-11.75.056-7.616.375-10.87.909-9.25.453 1.375 2.649 6.55 4.88 11.5 4.049 8.981 4.065 9 7.758 9 2.285 0 3.879-.536 4.168-1.402.336-1.009-.13-1.245-1.667-.843-1.174.307-2.134.218-2.134-.197 0-1.236 7.591-18.987 8.47-19.805.444-.414.523 1.114.173 3.396-.976 6.381.367 19.351 2.004 19.351 1.022 0 1.372-2.018 1.429-8.25.074-8.018.114-8.151 1.424-4.75l1.348 3.5.076-6.281c.057-4.712-.299-6.426-1.424-6.857-.825-.317-1.5-1.653-1.5-2.969 0-1.835-.54-2.393-2.316-2.393-1.99 0-2.986 1.543-7.095 11-2.628 6.051-5.128 10.785-5.554 10.522-.426-.264-1.808-3.302-3.07-6.751C7.634 154.666 4.159 149 1.905 149 .122 149 0 149.899 0 163m41.396-12.571c-6.944 3.023-9.983 11.541-6.531 18.306 6.681 13.097 26.529 9.926 27.868-4.452.358-3.846-.017-5.469-1.914-8.283-4.242-6.294-12.391-8.632-19.423-5.571M65 149.958c0 .875 2.729 1.509 5.147 1.195.83-.108 2.141 16.287 1.705 21.338-.209 2.429.126 4.002.908 4.262.933.311 1.269-2.389 1.358-10.92.066-6.233.053-11.866-.028-12.517-.081-.652 1.328-1.327 3.131-1.5 6.223-.599 3.279-2.316-4.471-2.608-4.895-.185-7.75.092-7.75.75m26.02.794c-4.235 2.127-8.02 7.521-8.02 11.428 0 7.852 6.556 14.82 13.943 14.82 15.676 0 21.644-18.171 8.453-25.734-4.698-2.693-9.685-2.871-14.376-.514M117 163.083c0 10.822.29 13.988 1.25 13.669.89-.296 1.33-4.007 1.529-12.901l.278-12.485 4.891.627c5.901.757 8.052 2.353 8.052 5.974 0 3.528-2.835 6.033-6.829 6.033-1.744 0-3.171.22-3.171.489 0 1.435 9.359 12.511 10.572 12.511 1.637 0 1.912-1.583.433-2.497-.547-.338-1.492-1.544-2.099-2.679-.8-1.494-.801-1.877-.006-1.386.619.383 1.1.003 1.1-.867 0-.989-.773-1.461-2.14-1.309-3.382.376-3.129-1.615.414-3.262 2.368-1.101 3.461-2.452 4.111-5.08 1.678-6.79-3.646-10.901-14.135-10.914L117 149v14.083m29.411-12.192c-3.987 2.432-7.103 6.43-7.924 10.17-.878 3.995 2.492 10.768 6.81 13.689 5.502 3.721 14.569 2.482 19.108-2.612 2.424-2.721.726-2.738-3.848-.039-9.142 5.394-18.557.386-18.557-9.868 0-4.912 2.775-8.672 7.569-10.254 4.432-1.462 8.147-.58 11.671 2.771 2.872 2.732 4.933 2.375 3.15-.546-1.542-2.525-7.404-5.199-11.39-5.197-1.925.001-4.89.85-6.589 1.886m22.589-.764c0 .62 1.865 4.506 4.145 8.635 3.056 5.536 4.217 8.846 4.419 12.597.365 6.786 2.436 7.438 2.436.767 0-4.043.89-6.728 4.5-13.572 4.752-9.011 4.963-9.554 3.71-9.554-.434 0-2.485 3.14-4.557 6.977-2.073 3.837-4.087 7.173-4.475 7.413-.388.24-2.469-2.9-4.624-6.977-3.627-6.863-5.554-9.043-5.554-6.286m30.241.868c-9.916 6.045-9.402 19.209.959 24.6 3.731 1.941 8.189 1.757 12.657-.522 4.559-2.326 7.206-5.073 4.888-5.073-.825 0-2.058.672-2.739 1.493-1.673 2.016-8.338 3.713-11.483 2.924-1.403-.353-3.895-1.896-5.537-3.43-2.525-2.359-2.986-3.542-2.986-7.666 0-5.506 1.722-8.609 6.011-10.827 4.327-2.237 8.411-1.851 11.955 1.13 3.128 2.633 4.743 2.666 3.749.077-.773-2.017-6.984-4.702-10.866-4.697-1.842.002-4.816.898-6.608 1.991m24.815 11.919l.141 14.086h6.235c4.875 0 6.235-.327 6.235-1.5 0-1.146-1.26-1.5-5.334-1.5H226v-11.941c0-7.212-.413-12.196-1.043-12.586-.708-.437-.998 3.883-.901 13.441m18.165.336l.279 13.25 5.724-.024c3.154-.013 6.274-.574 6.95-1.25.968-.968-.195-1.226-5.526-1.226h-6.753l.303-5.25.302-5.25 5.5-.587 5.5-.587-5.802-.163-5.803-.163.303-5.25.302-5.25 6.5-.577 6.5-.578-7.279-.172-7.279-.173.279 13.25M43 152.752c-7.301 3.647-8.407 12.684-2.256 18.443 3.635 3.404 6.563 4.189 10.625 2.848 10.494-3.463 11.23-17.388 1.141-21.603-4.398-1.838-5.264-1.81-9.51.312m50.418-.783c-1.144.463-3.329 2.325-4.854 4.138-2.254 2.679-2.681 3.986-2.278 6.986.62 4.624 4.083 9.403 7.985 11.019 2.43 1.007 3.738.972 7.017-.187 5.141-1.817 7.985-5.619 7.985-10.673 0-8.288-8.43-14.287-15.855-11.283M76 155.5c0 .825.402 1.5.893 1.5s1.152-.675 1.469-1.5c.35-.914.001-1.5-.893-1.5-.808 0-1.469.675-1.469 1.5m170 .667c0 1.191.127 1.979.283 1.75.156-.229.886-1.204 1.622-2.167 1.147-1.498 1.106-1.75-.283-1.75-.997 0-1.622.835-1.622 2.167M38.5 164c-.34.55-.141 1 .441 1S40 164.55 40 164s-.198-1-.441-1-.719.45-1.059 1m75.772 3c0 2.475.195 3.488.434 2.25.238-1.238.238-3.262 0-4.5-.239-1.238-.434-.225-.434 2.25m29.96-1c0 1.925.206 2.713.457 1.75.252-.963.252-2.537 0-3.5-.251-.963-.457-.175-.457 1.75m-56.153-.417c.048 1.165.285 1.402.604.605.289-.722.253-1.585-.079-1.917-.332-.332-.568.258-.525 1.312m109.079.417c0 1.375.227 1.938.504 1.25.278-.687.278-1.812 0-2.5-.277-.687-.504-.125-.504 1.25m48.148.645c-.974 2.537 1.169 3.592 3.058 1.506 1.631-1.803 1.612-1.924-.385-2.446-1.332-.349-2.311-.005-2.673.94M64.07 169.25c.059 2.724.21 2.926.93 1.25 1.187-2.763 1.187-4.5 0-4.5-.55 0-.968 1.463-.93 3.25m117.505-2.371c-.27.436-.141 2.099.286 3.695l.777 2.904 1.102-3.162c.882-2.531.825-3.269-.287-3.696-.764-.293-1.609-.176-1.878.259" fill="#1976D2" fill-rule="evenodd"/><path fill-opacity=".123" d="M20.33 81.068C4.369 86.127-3.917 104.39 2.848 119.599c2.827 6.354 9.112 12.607 15.652 15.571 4.6 2.085 6.922 2.314 29 2.866 23.675.591 24.056.569 28.12-1.684 2.563-1.421 4.77-3.655 5.842-5.913 1.648-3.473 1.654-4.426.057-8.939-.569-1.607-.496-1.705.371-.5 1.332 1.851 1.452.605.17-1.764-.516-.955-1.191-2.939-1.499-4.409-.772-3.682-5.308-8.823-9.232-10.463-4.379-1.829-44.322-1.971-46.129-.164-1.379 1.379-1.565 5.676-.331 7.622 1.466 2.313 8.162 3.13 25.846 3.154 15.983.022 17.289.162 18.25 1.958 1.536 2.871 1.268 4.833-.965 7.066-1.865 1.865-3.333 2-21.788 2-18.535 0-20.07-.143-24.242-2.25-5.002-2.527-8.97-7.707-8.97-11.71 0-3.547 3.167-9.932 6.668-13.444 1.557-1.563 5.166-3.911 8.018-5.219C32.646 91.103 33.828 91 54.877 91c12.103 0 22.257.408 22.565.906.812 1.315 4.318.162 5.012-1.648 1.012-2.635-.53-2.877-2.54-.397C78.861 91.159 78 91.777 78 91.233c0-.543.698-1.567 1.551-2.275.941-.781 1.433-2.492 1.25-4.35-.512-5.207-2.537-5.583-29.801-5.537-21.471.036-25.263.283-30.67 1.997m71.688-1.405c-4.588 2.038-5.474 7.337-1.647 9.844 2.066 1.354 5.573 1.456 27.25.791 13.683-.42 23.599-.918 22.034-1.106-2.709-.327-2.828-.554-2.492-4.768l.351-4.424-6.507-.003c-3.579-.002-13.482-.226-22.007-.498-8.525-.272-16.167-.198-16.982.164M168 89.032c0 .568-.977 1.394-2.171 1.836-1.194.441-1.757 1.049-1.25 1.35 1.514.9 5.421-1.036 5.421-2.686 0-.842-.45-1.532-1-1.532s-1 .465-1 1.032m19.223 10.54c-.11 1.335.244 2.428.788 2.428 1.171 0 1.34-3.665.201-4.369-.433-.268-.878.606-.989 1.941m-98.12 4.804c-1.649 1.987-1.017 10.507 1.166 15.729 2.452 5.862 12.383 14.297 18.231 15.482.55.112 1.45.303 2 .426s6.862.171 14.026.105l13.027-.118-.382-4c-.209-2.2-.446-4.013-.526-4.029-.08-.017-3.97-.252-8.645-.524-11.874-.69-16.856-1.406-17.546-2.521-.326-.527-.934-.747-1.352-.489-.417.258-2.274-.914-4.125-2.605-3.142-2.87-3.247-3.162-1.571-4.387.987-.721 1.532-1.737 1.21-2.257-.946-1.531 4.763-2.188 19.009-2.188H137v-3.889c0-3.607-.235-3.929-3.25-4.442-1.787-.305-12.263-.858-23.278-1.231-17.746-.6-20.182-.493-21.369.938m77.47 9.145c-1.06.802-1.661 1.724-1.336 2.05.791.79 4.763-1.383 4.763-2.606 0-1.344-1.165-1.155-3.427.556m18.177 22.562c-1.674 1.834-1.663 1.917.25 1.917 1.1 0 2-.188 2-.418 0-.23.273-1.13.607-2 .816-2.127-.701-1.86-2.857.501m-18.177.438c-2.27 1.718-1.233 3.385 1.165 1.872 1.824-1.15 2.897-3.411 1.595-3.361-.458.017-1.7.688-2.76 1.489M254 136.5c-1.02 1.229-.951 1.5.378 1.5.892 0 1.622-.675 1.622-1.5s-.17-1.5-.378-1.5c-.207 0-.937.675-1.622 1.5M.221 162.43c.339 16.501 2.204 18.222 2.436 2.246.086-5.953.424-11.09.75-11.416.326-.326.593-.028.593.664 0 1.463 7.899 19.956 9.341 21.868 1.38 1.831 1.851 1.069 7.293-11.792l4.866-11.5.285 11.485c.157 6.317.651 11.851 1.098 12.298 1.042 1.042 2.171-19.875 1.286-23.824-1.238-5.52-3.423-3.393-8.555 8.327-2.718 6.208-5.285 10.933-5.704 10.5-.419-.432-2.772-5.511-5.227-11.286-3.484-8.192-4.935-10.571-6.603-10.823-2.106-.319-2.133-.121-1.859 13.253m42.229-12.023c-1.677.73-4.312 2.829-5.857 4.664-2.483 2.952-2.756 3.948-2.367 8.64.894 10.787 11.009 16.271 20.799 11.276 5.109-2.606 7.142-5.83 7.142-11.327 0-6.245-2.469-10.44-7.483-12.717-4.906-2.227-8.037-2.364-12.234-.536m50.254.035c-4.417 1.576-8.275 5.665-9.064 9.607-1.784 8.921 7.619 18.253 16.675 16.55 3.125-.587 9.984-6.013 10.392-8.22.114-.617.4-2.192.635-3.5 1.022-5.682-3.971-13.127-9.909-14.776-4.702-1.305-4.048-1.331-8.729.339m-23.954.281l3.25.404v12.436c0 7.625.387 12.437 1 12.437s1-4.811 1-12.434v-12.433l2.75-.417c1.513-.229-.4-.412-4.25-.406-3.85.005-5.537.192-3.75.413m48.75.277c.34.55.816 1 1.059 1s.441-.45.441-1-.477-1-1.059-1-.781.45-.441 1m-77.748 4.012c-3.669 3.669-3.966 4.357-3.472 8.038 1.44 10.736 11.841 15.248 20.032 8.69 3.369-2.697 4.623-9.068 2.699-13.712C57.4 154.138 52.266 151 47.514 151c-3.043 0-4.505.756-7.762 4.012m51.562-2.062C87.261 155.421 86 157.818 86 163.052c0 3.526.61 4.793 3.882 8.066 3.099 3.098 4.623 3.882 7.55 3.882 4.353 0 8.844-2.129 11.007-5.217 2.012-2.871 2.012-10.695 0-13.566-3.624-5.174-11.525-6.681-17.125-3.267m35.379 15.117c.994 1.687 2.678 3.824 3.742 4.75 1.11.965.753.102-.836-2.024-1.524-2.039-2.48-4.176-2.126-4.75.355-.574-.082-1.043-.971-1.043-1.445 0-1.425.322.191 3.067" fill="#1976D2" fill-rule="evenodd"/></svg>